<svg version="1.1" id="Слой_1" xmlns="http://www.w3.org/2000/svg" x="0" y="0" viewBox="0 0 63 45" xml:space="preserve"><style>.st0{fill:#81c64b}.st1{fill:#73aa44}.st3{fill:#806749}.st4{fill:#997b57}</style><switch><g><path class="st0" d="M47.3 19v-4.3c0-4.9 4-8.9 8.9-8.9h2.5c1 0 1.8.8 1.8 1.8v2.5c0 4.9-4 8.9-8.9 8.9h-4.3z"/><path class="st1" d="M56.4 13.9c-1.4-.3-2.6-1.1-3.3-2.3-.8-1.3-1.8-2.4-2.9-3.4-1.8 1.6-2.9 3.9-2.9 6.5V19h4.3c3.2 0 6-1.7 7.6-4.3-.9-.4-1.8-.6-2.8-.8zM14.4 17.5c-1.2-2-3.7-7.3-1.7-12.2.2-.5 0-1.1-.5-1.3-.5-.2-1.1 0-1.3.5-1.1 2.7-1.2 5.9-.3 9.2-1.2-.7-2.5-1.3-3.9-1.7-.3-.1-.5 0-.8.1-.2.1-.4.4-.5.6-.1.3 0 .5.1.8.1.2.3.4.6.5 3.6 1 5.7 3.6 6.5 4.7.3.4.4.7.4.7.2.3.5.4.8.4.2 0 .3 0 .5-.1.5-.3.6-.9.4-1.4.1-.1 0-.3-.3-.8zm-.1 2zM50.3 2.5c-.1-.3-.3-.5-.5-.6-.5-.2-1.1 0-1.4.5-.3.6-1 1.1-2.1 1.6-.1 0-.1 0-.2.1.2-1.1.2-2.2.1-3.1-.1-.6-.6-1-1.1-.9-.6.1-1 .6-.9 1.1.4 3.3-1.5 6.7-1.5 6.7-.3.5-.1 1.1.4 1.4.2.1.3.1.5.1.1 0 .2 0 .3-.1.2-.1.4-.2.6-.5 0 0 .6-1 1-2.4.2-.1.4-.1.7-.2.3-.1.6-.2.9-.4 1.6-.7 2.7-1.6 3.2-2.6.1-.2.1-.5 0-.7z"/><path d="M62.5 30.3C62.5 38.4 56 45 47.8 45H15.2C7 45 .5 38.4.5 30.3c0-8 6.4-14.5 14.3-14.7C18 8.9 24.9 4.2 32.9 4.1h.2c8.3 0 15.4 4.9 18.6 12 6.3 1.7 10.8 7.4 10.8 14.2z" fill="#a2e264"/><path class="st0" d="M21.4 19.7s-11 2.9-11 11c0 8.2 3.9 12.2 9.1 14.3h-4.3C7 45 .5 38.4.5 30.3c0-8 6.4-14.5 14.3-14.7C18 8.9 24.9 4.2 32.9 4.1c-8.9.2-12.3 10.4-11.5 15.6z"/><path class="st3" d="M20.5 35.3l1.7-4.1c.2-.5.6-.8 1-1-1-.4-2.1.1-2.4 1L19.5 34l1 1.3z"/><path class="st4" d="M27.1 45l-5-7.3 2.1-5.1c.4-1-.1-2.1-1-2.4-1-.4-2.1.1-2.4 1L19.5 34l-2.8-4c-.6-.9-1.7-1.1-2.6-.5-.9.6-1.1 1.7-.5 2.6l4.7 6.9 4.1 6"/><path class="st3" d="M19.9 39l-4.8-7c-.6-.9-.4-2 .5-2.6.1-.1.2-.1.3-.2-.6-.2-1.2-.2-1.8.2-.9.6-1.1 1.7-.5 2.6l4.7 6.9 4.1 6H24L19.9 39z"/><path class="st4" d="M40.2 45l5.2-11.4 4.1-.7c1-.2 1.7-1.2 1.5-2.2-.2-1-1.2-1.7-2.2-1.5l-1.6.3 1.3-2.8c.4-.9 0-2.1-.9-2.5-.9-.4-2.1 0-2.5.9l-2.8 6.1-.6 1.3L38.5 21c-.3-1-1.3-1.6-2.3-1.3-1 .3-1.6 1.3-1.3 2.3l4.4 15.7L36 45"/><path class="st3" d="M42.2 34.3l4.2-9.2c.2-.5.6-.8 1-1-.9-.3-2 .1-2.4 1l-3.4 7.4.6 1.8zM36.2 22c-.3-.9.2-1.9 1.1-2.3-.4-.1-.8-.2-1.2-.1-1 .3-1.6 1.3-1.3 2.3l4.4 15.7L36 45h1.3l3.3-7.2L36.2 22z"/></g></switch></svg>