<svg version="1.1" id="Слой_1" xmlns="http://www.w3.org/2000/svg" x="0" y="0" viewBox="0 0 56 70" xml:space="preserve"><style>.st2{fill:#73aa44}</style><switch><g><path d="M44.1 53.5c-9.5 12.2-27.1 6.9-32.9 2.4S-3.5 36 6 23.8C18.6 7.7 46 1.5 53.5 0c1.1-.2 2 .6 2.1 1.6.4 7.7 1 35.9-11.5 51.9z" fill="#81c64b"/><path d="M54.9.3c-.4-.2-.9-.4-1.4-.3C46 1.5 18.6 7.7 6 23.8c-9.5 12.2-.8 27.3 5 31.9L54.9.3z" fill="#a2e264"/><path class="st2" d="M24.4 36.7l-6.3 8.1L16.5 32c-.1-1-1-1.7-2-1.5-1 .1-1.7 1-1.5 2l2 16.2L.6 67.1c-.6.8-.5 1.9.3 2.5.8.6 1.9.5 2.5-.3l23.3-29.9L37.8 38c.9-.1 1.6-.9 1.6-1.8V36c-.1-1-1-1.7-2-1.5l-7.6.9 4.8-6.2c.3-.3.4-.7.4-1.1 0-.5-.2-1-.7-1.4-.8-.6-1.9-.5-2.5.3l-7.4 9.7zM39.2 17.6l-1.5 1.9c-.6.8-.5 1.9.3 2.5.8.6 1.9.5 2.5-.3l1.5-1.9c.3-.3.4-.7.4-1.1 0-.5-.2-1-.7-1.4-.8-.6-1.9-.4-2.5.3z"/></g></switch></svg>