<svg version="1.1" id="Слой_1" xmlns="http://www.w3.org/2000/svg" x="0" y="0" viewBox="0 0 191 97" xml:space="preserve"><style>.st0{fill:#18574e}.st1{fill:#68c127}.st2{fill:#51473b}.st4{fill:#a7d6f9}</style><switch><g><path class="st0" d="M145.8 59.5l-1.5 1.2c-.5.5-1 1-1.4 1.6-.5-.5-1-1-1.6-1.5l-1.5-1.2c-.5-.4-1.1-.8-1.7-1.1.2.6.5 1.3.8 1.9.3.6.6 1.2 1 1.7.7 1.1 1.4 2.2 2.2 3.2l1 1.3 1.2-1.3c.8-.9 1.6-1.9 2.2-3 .3-.6.6-1.1.8-1.7.2-.6.4-1.3.5-2-.9.2-1.5.5-2 .9z"/><path class="st1" d="M186.9 48.4c-6.8 8.2-29.6 9.2-37.3 9.3 2.3-2.9 4.6-5.7 6.9-8.6 3-3.9 5.9-7.7 8.8-11.6 2.9-3.9 5.7-7.9 8.4-12-3.5 3.4-6.9 7-10.2 10.5-3.3 3.6-6.5 7.2-9.8 10.9-2.4 2.8-4.8 5.5-7.2 8.4-1.3-7.6-4.6-30.2 2.2-38.4 8.2-9.9 39.6-9.1 39.6-9.1s6.8 30.7-1.4 40.6zM138.2 56l-2.3-2.6c-2.2-2.3-4.3-4.7-6.6-7-1.1-1.2-2.2-2.3-3.3-3.5l-3.4-3.4c.9 1.3 1.8 2.7 2.7 4 .9 1.3 1.8 2.6 2.8 3.9 1.9 2.6 3.8 5.2 5.7 7.7l2 2.6c-5.4-.1-19.7-1-24-6.2-5.4-6.5-.9-26.6-.9-26.6s20.6-.4 25.9 6.1c4.5 5.4 2.3 20 1.4 25z"/><path class="st2" d="M129.6 5.8c-.5-2.1-.1-4.8 1.3-5.6.1 0 .1-.1.2-.1.5-.2 1.1.2 1.1.7 0 .3-.2.6-.5.7h-.1c-.5.3-1 2-.6 3.9l-1.4.4zM125.4 7.5c-.9-1.4-2.4-2.3-3-2.1h-.1c-.3.1-.6 0-.8-.2-.4-.4-.3-1.1.3-1.3.1 0 .2-.1.2-.1 1.7-.5 3.7 1.1 4.8 2.8l-1.4.9z"/><path d="M136.3 14.8c-.1.6-.2 1.3-.3 1.8-.6 2.7-1.7 4.6-1.7 4.6s-2.1-.6-4.4-2.1c-.5-.3-1-.7-1.5-1.1-.6-.5-1.1-1-1.6-1.6-.1-.1-.2-.2-.2-.3-.3-.3-.5-.7-.8-1-.1-.1-.1-.2-.2-.3-.3-.4-.5-.9-.8-1.4 0-.1-.1-.2-.1-.3-.1-.2-.1-.4-.2-.5-.1-.2-.2-.5-.2-.7-.1-.3-.1-.6-.2-.9-.4-3.2 2-4.6 3.8-5.4 1.8-.7 4.5-1.4 6.5 1.2.2.2.3.5.5.8l.3.6c.1.2.2.3.2.5 0 .1.1.2.1.3.2.5.4 1 .5 1.5 0 .1.1.2.1.4.1.4.1.8.2 1.3v.4c.1.8.1 1.5 0 2.2z" fill="#ffec00"/><path class="st4" d="M135 7.5l3.1-1.3s3.1-1.2 4.3 1.8c1.2 3-1.8 4.3-1.8 4.3s-3 1.3-4.3-1.8l-1.3-3zM124.2 11.9l-3.1 1.3s-3 1.3-1.8 4.3 4.3 1.8 4.3 1.8 3.1-1.2 1.8-4.3c-1.1-3.1-1.2-3.1-1.2-3.1z"/><path class="st2" d="M135.6 9.1l-10.7 4.4c0-.1-.1-.2-.1-.3-.1-.2-.1-.4-.2-.5-.1-.2-.2-.5-.2-.7L135 7.7l.3.6c.1.2.2.3.2.5 0 .1 0 .2.1.3zM136.3 12.6l-9.5 3.9c-.1-.1-.2-.2-.2-.3-.3-.3-.5-.7-.8-1l10.3-4.2c.1.4.1.8.2 1.3v.3zM136.3 14.8c-.1.6-.2 1.3-.3 1.8l-6.1 2.5c-.5-.3-1-.7-1.5-1.1l7.9-3.2z"/><path class="st0" d="M1.2 52.1h11.4v14.3H9.5V54.9H4.3v11.6H1.2V52.1zM22 66.7c-.9 0-1.8-.2-2.6-.5s-1.4-.8-2-1.4c-.5-.6-1-1.4-1.3-2.3-.3-.9-.5-2-.5-3.2s.2-2.3.5-3.2c.3-.9.7-1.7 1.3-2.3.5-.6 1.2-1.1 2-1.4.8-.3 1.6-.5 2.6-.5.9 0 1.8.2 2.6.5s1.4.8 2 1.4c.5.6 1 1.4 1.3 2.3s.5 2 .5 3.2-.2 2.3-.5 3.2-.7 1.7-1.3 2.3c-.5.6-1.2 1.1-2 1.4-.8.3-1.6.5-2.6.5zm0-2.8c.9 0 1.7-.3 2.2-.9.5-.6.8-1.5.8-2.6v-2.1c0-1.1-.3-2-.8-2.6-.5-.6-1.3-.9-2.2-.9-.9 0-1.7.3-2.2.9-.5.6-.8 1.5-.8 2.6v2.1c0 1.1.3 2 .8 2.6.6.6 1.3.9 2.2.9zM29.6 63.7h1.6c.2-.2.5-.5.7-.9.2-.4.4-.8.5-1.4.2-.5.3-1.2.3-2 .1-.8.1-1.7.1-2.8V52h10.3v11.6h2.3v5.8h-2.9v-3.1h-10v3.1h-2.9v-5.7zm10.4 0v-8.8h-4.1v2.2c0 .9 0 1.8-.1 2.4-.1.7-.1 1.3-.2 1.8s-.2.9-.4 1.3-.3.7-.5.9v.1H40zM56.9 66.4l-1-3.4h-4.8l-1 3.4h-3.2l4.7-14.3h3.9l4.7 14.3h-3.3zm-3.4-11.5h-.1l-1.6 5.4h3.3l-1.6-5.4zM62.6 66.4V52.1h6.8c.7 0 1.3.1 1.8.3.5.2 1 .5 1.4.9.4.4.7.9.9 1.4.2.6.3 1.2.3 1.9s-.1 1.3-.3 1.9c-.2.6-.5 1-.9 1.4-.4.4-.8.7-1.4.9-.5.2-1.1.3-1.8.3h-3.7v5.2h-3.1zm3.2-7.8H69c.5 0 .8-.1 1.1-.4.3-.2.4-.6.4-1.1v-.9c0-.5-.1-.8-.4-1.1-.3-.2-.6-.4-1.1-.4h-3.3v3.9zM77.3 63.7h2.5l.3-.8-5-10.8h3.3l2 4.5 1.2 2.9h.1l1-2.9 1.8-4.4h3.1l-5 12.3c-.2.4-.3.7-.5.9-.2.3-.4.5-.6.6-.2.2-.5.3-.9.3-.3.1-.7.1-1.1.1h-2.1v-2.7zM89.9 52.1h3v7l-.3 3h.1l1.4-2.7 4.7-7.3h2.8v14.3h-3v-7l.3-3h-.1l-1.4 2.7-4.7 7.3h-2.8V52.1zm5.9-.9c-.9 0-1.6-.2-2.2-.6-.6-.4-1-1-1.3-1.7l-.4-1 2.4-.9.7 2.1c.1 0 .2.1.4.1h1c.2 0 .3-.1.4-.1l.7-2.1 2.4.9-.4 1c-.3.7-.8 1.3-1.3 1.7-.8.4-1.5.6-2.4.6z"/><g><path class="st0" d="M0 91.3h1.6c.2-.2.5-.5.7-.9.2-.4.4-.8.5-1.4.2-.5.3-1.2.3-2 .1-.8.1-1.7.1-2.8v-4.6h10.3v11.6h2.3V97h-2.9v-3.1h-10V97H0v-5.7zm10.4 0v-8.8H6.3v2.2c0 .9 0 1.8-.1 2.4-.1.8-.2 1.4-.3 1.9-.1.5-.2.9-.4 1.3s-.3.7-.5.9v.1h5.4zM18.5 94.1V79.8h9.7v2.8h-6.6v2.9h5.7v2.8h-5.7v3.1h6.6v2.8h-9.7zM31.4 94.1V79.8h6.8c.7 0 1.3.1 1.8.3.5.2 1 .5 1.4.9.4.4.7.9.9 1.4.2.6.3 1.2.3 1.9s-.1 1.3-.3 1.9c-.2.6-.5 1-.9 1.4-.4.4-.9.8-1.4 1-.5.2-1.1.3-1.8.3h-3.7v5.2h-3.1zm3.2-7.9h3.3c.5 0 .8-.1 1.1-.4.3-.2.4-.6.4-1.1v-.9c0-.5-.1-.8-.4-1.1-.3-.2-.6-.4-1.1-.4h-3.3v3.9zM45.4 94.1V79.8h9.7v2.8h-6.6v2.9h5.7v2.8h-5.7v3.1h6.6v2.8h-9.7zM58.4 79.8h7c1.2 0 2.1.3 2.8 1 .7.7 1 1.6 1 2.7 0 .5-.1 1-.2 1.4-.1.4-.3.7-.6.9-.2.2-.5.4-.8.5s-.7.2-1 .2v.1c.3 0 .7.1 1.1.2.4.1.7.3 1 .6.3.3.6.6.8 1 .2.4.3.9.3 1.6 0 .6-.1 1.1-.3 1.6-.2.5-.4.9-.8 1.3-.3.4-.7.7-1.2.9-.5.2-1 .3-1.5.3h-7.6V79.8zm3.1 5.8h3.1c.4 0 .7-.1 1-.3.2-.2.3-.6.3-1v-.6c0-.4-.1-.7-.3-1-.2-.2-.6-.3-1-.3h-3.1v3.2zm0 5.9h3.6c.4 0 .7-.1 1-.3.2-.2.4-.5.4-1v-.7c0-.4-.1-.7-.4-1-.2-.2-.6-.3-1-.3h-3.6v3.3zM81.1 94.1l-1-3.4h-4.8l-1 3.4h-3.2l4.7-14.3h3.9l4.7 14.3h-3.3zm-3.4-11.5h-.1L76 88h3.3l-1.6-5.4zM93 91.3h2.5l.3-.8-5-10.8h3.3l2 4.5 1.2 2.9h.1l1-2.9 1.8-4.4h3.1l-5 12.3c-.2.4-.3.7-.5.9-.2.3-.4.5-.6.6-.2.2-.5.3-.9.3-.3.1-.7.1-1.1.1H93v-2.7zM105.6 79.8h3.1v5.7h2.1l2.1-4c.3-.6.7-1 1.1-1.3.4-.3.9-.4 1.5-.4h1.3v2.8h-1.3l-1.5 2.8c-.2.4-.4.7-.6.8-.2.2-.5.4-.9.5v.1c.4.1.7.2.9.4.3.2.5.5.7.9l1.7 3.3h1.3v2.8h-1.6c-.6 0-1-.1-1.4-.4-.4-.2-.7-.7-1.1-1.4l-2.1-4.1h-2.1v5.9h-3.1V79.8zM120 94.1V79.8h6.8c.7 0 1.3.1 1.8.3.5.2 1 .5 1.4.9.4.4.7.9.9 1.4.2.6.3 1.2.3 1.9s-.1 1.3-.3 1.9c-.2.6-.5 1-.9 1.4-.4.4-.8.7-1.4.9-.5.2-1.1.3-1.8.3h-3.7V94H120zm3.1-7.9h3.3c.5 0 .8-.1 1.1-.4.3-.2.4-.6.4-1.1v-.9c0-.5-.1-.8-.4-1.1-.3-.2-.6-.4-1.1-.4h-3.3v3.9zM141.3 94.1l-1-3.4h-4.8l-1 3.4h-3.2l4.7-14.3h3.9l4.7 14.3h-3.3zm-3.4-11.5h-.1l-1.6 5.4h3.3l-1.6-5.4zM147.7 78.5c-.6 0-1-.1-1.3-.4-.2-.3-.4-.6-.4-.9v-.5c0-.4.1-.7.4-.9.2-.3.7-.4 1.3-.4.6 0 1 .1 1.3.4.2.3.4.6.4.9v.5c0 .4-.1.7-.4.9-.3.2-.7.4-1.3.4zm-1.2 15.6v-2.5h1.8v-9.4h-1.8v-2.5h6.8v2.5h-1.8v9.4h1.8v2.5h-6.8zm5.7-15.6c-.6 0-1-.1-1.3-.4-.2-.3-.4-.6-.4-.9v-.5c0-.4.1-.7.4-.9.2-.3.7-.4 1.3-.4.6 0 1 .1 1.3.4.2.3.4.6.4.9v.5c0 .4-.1.7-.4.9-.3.2-.7.4-1.3.4zM165 88.2h-5.5v5.9h-3.1V79.8h3.1v5.7h5.5v-5.7h3.1v14.3H165v-5.9zM171.2 94.1v-2.5h1.8v-9.4h-1.8v-2.5h6.8v2.5h-1.8v9.4h1.8v2.5h-6.8z"/></g></g></switch></svg>