<svg version="1.1" id="Слой_1" xmlns="http://www.w3.org/2000/svg" x="0" y="0" viewBox="0 0 58 70" xml:space="preserve"><style>.st0{fill:#81c64b}.st1{fill:#a2e264}.st2{fill:#73aa44}</style><switch><g><path class="st0" d="M46.5 58.1c-4.7 2.2-10.9-1-11.9-3.2s.4-9 5.1-11.2c5.8-2.7 14.1-1 17.2-.2.7.2 1 .9.7 1.5-1.3 2.8-5.3 10.3-11.1 13.1z"/><path class="st1" d="M57 43.4c-3.1-.8-11.4-2.5-17.2.2-4.7 2.2-6.1 9-5.1 11.2l.1.1c3.9-2.4 14.4-8.4 23-10.5-.1-.4-.4-.9-.8-1z"/><path class="st0" d="M33 8.9c.9 3.4-2 7-3.6 7.4-1.6.4-5.9-1.3-6.8-4.7-1-3.9.8-8.7 1.8-11 .3-.6 1.1-.9 1.7-.4C28 1.7 32 5 33 8.9z"/><path class="st1" d="M29.5 16.3c1.6-.4 4.4-4.1 3.6-7.4-1-3.9-5-7.2-6.9-8.7-.4-.2-.8-.2-1.2-.1.9 2.3 2.7 7.9 4.5 16.2z"/><path class="st0" d="M19.4 34.1c5.4 1.6 8 8.6 7.3 11.2-.7 2.5-6.8 7-12.2 5.4-6.7-2-12.2-9.5-14.1-12.3-.4-.7-.1-1.4.5-1.7 3.1-1.3 11.8-4.6 18.5-2.6z"/><path class="st1" d="M19.4 34.1C12.7 32.1 4 35.4.9 36.7c-.5.2-.7.8-.6 1.3 5.2.4 20.2 2.1 26.3 7.4 0-.1.1-.2.1-.2.8-2.5-1.9-9.5-7.3-11.1z"/><path class="st0" d="M24 19.2c3 1.9 3.3 6.5 2.5 7.9-.9 1.4-5.2 3-8.2 1.2-3.4-2.1-5.4-6.9-6.2-9.2-.2-.7.2-1.4.9-1.4 2.4-.4 7.6-.7 11 1.5z"/><path class="st1" d="M24 19.2c-3.4-2.1-8.6-1.9-11-1.6-.5.1-.9.5-1 .9 2.8 1.2 9.7 4.4 14.3 8.7 0 0 0-.1.1-.1.9-1.4.5-6.1-2.4-7.9z"/><path class="st0" d="M43.6 32.5c-3.2 1.5-7.3-.7-8-2.2-.7-1.5.3-6 3.4-7.5 3.6-1.7 8.7-.8 11.1-.2.7.2 1 .9.7 1.5-1 2.2-3.5 6.7-7.2 8.4z"/><path class="st1" d="M50.2 22.6c-2.4-.6-7.5-1.5-11.1.2-3.2 1.5-4.1 6-3.4 7.5.1.1.2.3.3.5 3.3-3.4 11.4-6 15-6.9.1-.6-.2-1.2-.8-1.3z"/><path class="st2" d="M28.6 60.5c-.3 0-.6-.1-.8-.3-.4-.4-.4-1.2 0-1.6.4-.4 9.2-8.7 21.8-12.4.6-.2 1.2.2 1.4.8.2.6-.2 1.2-.8 1.4-12.1 3.5-20.8 11.8-20.9 11.9-.2.1-.4.2-.7.2zM10 38.5c-.8-.1-1.2-.1-1.2-.1-.6 0-1.1.4-1.2 1.1 0 .6.4 1.1 1.1 1.2 0 0 .4 0 1.1.1h.1c.6 0 1.1-.4 1.1-1 0-.7-.4-1.3-1-1.3zM44.2 26.4c-.2-.6-.8-.9-1.4-.8-.4.1-.9.2-1.3.4-.6.2-.9.8-.7 1.4.2.5.6.8 1.1.8.1 0 .2 0 .4-.1.4-.1.8-.2 1.1-.3.6-.2 1-.8.8-1.4z"/><path class="st2" d="M37.4 28c-2.3 1.5-3.9 3.3-5 4.9-.2-8.1-1.4-17.1-4.4-26.3-.2-.6-.8-.9-1.4-.7-.5.1-.8.8-.6 1.4 2.5 7.8 3.7 15.4 4.1 22.4-4.4-6-10.1-8.4-10.4-8.5-.6-.2-1.2 0-1.5.6-.2.6 0 1.2.6 1.5.1 0 7.4 3.2 11.4 11 .1 4.6-.2 8.8-.6 12.7-3.2-4.4-9.7-6.6-15.1-7.7-.6-.1-1.2.3-1.3.9-.1.6.3 1.2.9 1.3 4.9 1 13.4 3.5 15 9.5-1.6 10.6-4.3 17.4-4.4 17.5-.2.6 0 1.2.6 1.5.1.1.3.1.4.1.4 0 .9-.3 1-.7.1-.1 2.9-7.2 4.5-18.3.6-3.8 1-8.1 1.1-12.7.2-.9 1.5-5.4 6.2-8.4.5-.3.7-1 .3-1.5-.2-.7-.9-.9-1.4-.5z"/></g></switch></svg>