<svg version="1.1" id="Слой_1" xmlns="http://www.w3.org/2000/svg" x="0" y="0" viewBox="0 0 49 70" xml:space="preserve"><style>.st1{fill:#81c64b}</style><switch><g><path d="M45.5 25.7c1.5-2.1 2.4-4.6 2.4-7.4 0-7.1-5.7-12.8-12.8-12.8h-.3C32.6 2.2 28.8 0 24.5 0c-5 0-9.3 3-11.2 7.3C5.7 9.3 0 16.2 0 24.5c0 4.5 1.7 8.7 4.5 11.8 0 .5-.1 1-.1 1.5 0 8.6 7 15.6 15.6 15.6.9 0 4.7-.1 5.6-.2l.4-3.9c2.2 1.2 4.7 1.9 7.4 1.9 8.6 0 15.6-7 15.6-15.6-.1-3.8-1.4-7.2-3.5-9.9z" fill="#a2e264"/><path class="st1" d="M25.6 47.5c-1.8.5-3.8.4-5.9-.6-2.9-1.3-4.9-4.1-5.2-7.2-.1-1.2 0-2.4.4-3.5.1-.4 0-.9-.4-1.2-2.7-2.2-4.5-5.6-4.5-9.4 0-4.9 2.9-9.2 7.2-11.1.4-.2.7-.6.7-1.1 0-.4-.1-.7-.1-1.1 0-5.8 4-10.6 9.4-11.9-.8-.3-1.7-.4-2.7-.4-5 0-9.3 3-11.2 7.3C5.7 9.3 0 16.2 0 24.5c0 4.5 1.7 8.7 4.5 11.8 0 .5-.1 1-.1 1.5 0 8.6 7 15.6 15.6 15.6.9 0 4.7-.1 5.6-.2V47.5z"/><path d="M23.4 47.8h-.1l-1 21.1H29l-1-20.7c0-.7-.8-1.3-1.5-1-1 .4-2 .6-3.1.6z" fill="#997b57"/><path d="M28 48.2c0-.7-.8-1.3-1.5-1-1 .4-2 .6-3.1.6h-.1l-1 21.1h3.3V50.8c0-.5.3-.9.8-1.1l1.6-.5v-1z" fill="#806749"/><path class="st1" d="M31.2 70H20.1c-.6 0-1.1-.5-1.1-1.1s.5-1.1 1.1-1.1h11.1c.6 0 1.1.5 1.1 1.1s-.5 1.1-1.1 1.1z"/></g></switch></svg>