<svg version="1.1" id="Слой_1" xmlns="http://www.w3.org/2000/svg" x="0" y="0" viewBox="0 0 248 60" xml:space="preserve"><style>.st0{fill:#18574e}.st1{fill:#68c127}.st2{fill:#51473b}.st4{fill:#a7d6f9}</style><switch><g><path class="st0" d="M92.3 13h10v12.6h-2.7V15.5H95v10.1h-2.7V13zM110.6 25.8c-.8 0-1.6-.1-2.3-.4-.7-.3-1.3-.7-1.7-1.2-.5-.5-.9-1.2-1.1-2-.3-.8-.4-1.7-.4-2.8 0-1.1.1-2 .4-2.8.3-.8.6-1.5 1.1-2 .5-.5 1.1-1 1.7-1.2.7-.3 1.4-.4 2.3-.4.8 0 1.6.1 2.3.4.7.3 1.3.7 1.7 1.2s.9 1.2 1.1 2c.3.8.4 1.7.4 2.8 0 1.1-.1 2-.4 2.8-.3.8-.6 1.5-1.1 2s-1.1 1-1.7 1.2c-.8.3-1.5.4-2.3.4zm0-2.4c.8 0 1.5-.3 1.9-.8s.7-1.3.7-2.3v-1.9c0-1-.2-1.8-.7-2.3s-1.1-.8-1.9-.8c-.8 0-1.5.3-1.9.8-.5.5-.7 1.3-.7 2.3v1.9c0 1 .2 1.8.7 2.3.4.5 1 .8 1.9.8zM117.2 23.2h1.4c.2-.2.4-.4.6-.8.2-.3.3-.7.5-1.2.1-.5.2-1.1.3-1.7V13h9v10.1h2v5.1h-2.6v-2.7h-8.7v2.7h-2.6v-5zm9.1 0v-7.7h-3.6v2c0 .8 0 1.5-.1 2.1 0 .6-.1 1.1-.2 1.6s-.2.8-.3 1.1c-.1.3-.3.6-.4.8v.1h4.6zM141.1 25.6l-.9-3H136l-.9 3h-2.8l4.1-12.6h3.4l4.1 12.6h-2.8zm-2.9-10.1l-1.5 4.8h2.9l-1.4-4.8zM146.2 25.6V13h5.9c.6 0 1.1.1 1.6.3.5.2.9.5 1.2.8.3.3.6.8.8 1.3.2.5.3 1 .3 1.6 0 .6-.1 1.1-.3 1.6-.2.5-.4.9-.8 1.3-.3.3-.7.6-1.2.8-.5.2-1 .3-1.6.3h-3.2v4.5h-2.7zm2.7-6.9h2.9c.4 0 .7-.1 1-.3s.4-.5.4-.9v-.8c0-.4-.1-.7-.4-.9s-.6-.3-1-.3h-2.9v3.2zM159 23.2h2.2l.3-.7-4.4-9.5h2.9l1.8 3.9 1 2.5h.1l.9-2.5 1.5-3.9h2.7l-4.4 10.8c-.1.3-.3.6-.4.8-.2.2-.4.4-.6.5-.2.1-.5.2-.7.3-.3.1-.6.1-1 .1H159v-2.3zM170.1 13h2.7v6.1l-.3 2.6h.1l1.2-2.4 4.1-6.4h2.4v12.6h-2.7v-6.1l.3-2.6h-.1l-1.2 2.4-4.1 6.4h-2.4V13zm5.1-.7c-.8 0-1.4-.2-1.9-.5s-.9-.8-1.2-1.5l-.4-.9 2.1-.8.6 1.8c.1 0 .2.1.3.1h1c.2 0 .3-.1.3-.1l.6-1.8 2.1.8-.4.9c-.3.6-.7 1.1-1.2 1.5s-1.1.5-1.9.5zM91.2 47.2h1.4c.2-.2.4-.4.6-.8.2-.3.3-.7.5-1.2.1-.5.2-1.1.3-1.7V37h9v10.1h2v5.1h-2.6v-2.7h-8.7v2.7h-2.6v-5zm9.1 0v-7.7h-3.6v2c0 .8 0 1.5-.1 2.1 0 .6-.1 1.1-.2 1.6s-.2.8-.3 1.1c-.1.3-.3.6-.4.8v.1h4.6zM107.4 49.6V37h8.5v2.4h-5.8V42h5v2.4h-5v2.7h5.8v2.4h-8.5zM118.8 49.6V37h5.9c.6 0 1.1.1 1.6.3.5.2.9.5 1.2.8.3.3.6.8.8 1.3.2.5.3 1 .3 1.6 0 .6-.1 1.1-.3 1.6-.2.5-.4.9-.8 1.3-.3.3-.7.6-1.2.8-.5.2-1 .3-1.6.3h-3.2v4.5h-2.7zm2.7-6.9h2.9c.4 0 .7-.1 1-.3.2-.2.4-.5.4-.9v-.8c0-.4-.1-.7-.4-.9-.2-.2-.6-.3-1-.3h-2.9v3.2zM131.1 49.6V37h8.5v2.4h-5.8V42h5v2.4h-5v2.7h5.8v2.4h-8.5zM142.4 37h6.1c1 0 1.9.3 2.4.9s.9 1.4.9 2.3c0 .5-.1.9-.2 1.2s-.3.6-.5.8-.5.4-.7.5c-.3.1-.6.2-.9.2v.1c.3 0 .6.1.9.2s.6.3.9.5c.3.2.5.5.7.9.2.4.3.8.3 1.4 0 .5-.1 1-.2 1.4-.2.4-.4.8-.7 1.1-.3.3-.6.6-1 .8-.4.2-.8.3-1.3.3h-6.7V37zm2.8 5.2h2.7c.4 0 .6-.1.8-.3s.3-.5.3-.8v-.5c0-.4-.1-.6-.3-.8s-.5-.3-.8-.3h-2.7v2.7zm0 5.1h3.1c.4 0 .6-.1.9-.3.2-.2.3-.5.3-.8v-.6c0-.4-.1-.6-.3-.8-.2-.2-.5-.3-.9-.3h-3.1v2.8zM162.4 49.6l-.9-3h-4.2l-.9 3h-2.8l4.1-12.6h3.4l4.1 12.6h-2.8zm-3-10.1l-1.5 4.8h2.9l-1.4-4.8zM172.9 47.2h2.2l.3-.7L171 37h2.9l1.8 3.9 1 2.5h.1l.9-2.5 1.5-3.9h2.7l-4.4 10.8c-.1.3-.3.6-.4.8-.2.2-.4.4-.6.5-.2.1-.5.2-.7.3-.3.1-.6.1-1 .1H173v-2.3zM183.9 37h2.7v5h1.8l1.9-3.5c.3-.5.6-.9.9-1.1.3-.2.8-.4 1.3-.4h1.1v2.4h-1.1l-1.3 2.4c-.2.3-.4.6-.6.7-.2.2-.5.3-.7.4v.1c.3.1.6.2.8.4.2.2.4.4.6.8l1.5 2.9h1.1v2.4h-1.4c-.5 0-.9-.1-1.3-.3s-.6-.6-.9-1.2l-1.9-3.6h-1.8v5.1h-2.7V37zM196.5 49.6V37h5.9c.6 0 1.1.1 1.6.3.5.2.9.5 1.2.8.3.3.6.8.8 1.3.2.5.3 1 .3 1.6 0 .6-.1 1.1-.3 1.6-.2.5-.4.9-.8 1.3-.3.3-.7.6-1.2.8-.5.2-1 .3-1.6.3h-3.2v4.5h-2.7zm2.7-6.9h2.9c.4 0 .7-.1 1-.3s.4-.5.4-.9v-.8c0-.4-.1-.7-.4-.9s-.6-.3-1-.3h-2.9v3.2zM215.2 49.6l-.9-3h-4.2l-.9 3h-2.8l4.1-12.6h3.4l4.1 12.6h-2.8zm-3-10.1l-1.5 4.8h2.9l-1.4-4.8zM220.8 35.9c-.5 0-.9-.1-1.1-.3-.2-.2-.3-.5-.3-.8v-.5c0-.3.1-.6.3-.8.2-.2.6-.3 1.1-.3.5 0 .9.1 1.1.3.2.2.3.5.3.8v.5c0 .3-.1.6-.3.8-.2.2-.6.3-1.1.3zm-1.1 13.7v-2.2h1.6v-8.2h-1.6V37h6v2.2h-1.6v8.2h1.6v2.2h-6zm5-13.7c-.5 0-.9-.1-1.1-.3-.2-.2-.3-.5-.3-.8v-.5c0-.3.1-.6.3-.8.2-.2.6-.3 1.1-.3.5 0 .9.1 1.1.3.2.2.3.5.3.8v.5c0 .3-.1.6-.3.8-.2.2-.5.3-1.1.3zM236 44.4h-4.8v5.1h-2.7V37h2.7v5h4.8v-5h2.7v12.6H236v-5.2zM241.4 49.6v-2.2h1.6v-8.2h-1.6V37h6v2.2h-1.6v8.2h1.6v2.2h-6z"/><g><path class="st0" d="M33 53.6c-.5.3-.9.7-1.3 1.1-.5.4-.9.9-1.3 1.4-.5-.5-.9-.9-1.4-1.3-.5-.4-.9-.8-1.4-1.1-.5-.4-1-.7-1.5-1 .2.6.5 1.1.7 1.7.3.5.6 1.1.9 1.6.6 1 1.3 2 2 2.9l.9 1.1 1.1-1.2c.7-.8 1.4-1.7 1.9-2.7.3-.5.5-1 .7-1.6.2-.6.4-1.1.4-1.8-.7.3-1.2.6-1.7.9z"/><path class="st1" d="M70 43.6C63.9 51 43.4 52 36.4 52.1c2.1-2.6 4.1-5.2 6.2-7.8 2.7-3.5 5.4-6.9 8-10.5 2.6-3.5 5.2-7.1 7.6-10.8-3.2 3.1-6.2 6.3-9.2 9.5-3 3.2-5.9 6.5-8.8 9.8-2.2 2.5-4.3 5-6.5 7.5-1.2-6.8-4.1-27.2 2-34.6C43.2 6.3 71.4 7 71.4 7s6 27.7-1.4 36.6zM26.2 50.5l-2.1-2.3c-2-2.1-3.9-4.2-5.9-6.3-1-1-2-2.1-3-3.1s-2-2.1-3.1-3.1l2.4 3.6c.8 1.2 1.7 2.4 2.5 3.5 1.7 2.3 3.4 4.6 5.1 7l1.8 2.3c-4.8-.1-17.7-.9-21.6-5.6-4.8-5.9-.8-23.9-.8-23.9s18.5-.4 23.4 5.5c4 4.7 2.1 17.8 1.3 22.4z"/><path class="st2" d="M18.4 5.2C18 3.3 18.3.9 19.6.1c.1 0 .1-.1.2-.1.5-.2 1 .2 1 .7 0 .3-.2.5-.4.7h-.1c-.5.3-.9 1.8-.5 3.5l-1.4.3zM14.6 6.8c-.8-1.3-2.1-2.1-2.7-1.9h-.1c-.3.1-.6 0-.8-.2-.4-.4-.2-1 .2-1.2.1 0 .1 0 .2-.1C13 3 14.9 4.5 15.8 6l-1.2.8z"/><path d="M24.4 13.4c-.1.6-.1 1.1-.3 1.7-.5 2.4-1.5 4.1-1.5 4.1s-1.9-.5-4-1.9c-.4-.3-.9-.6-1.3-1-.5-.4-1-.9-1.5-1.4-.1-.1-.1-.2-.2-.3-.2-.3-.5-.6-.7-.9-.1-.1-.1-.2-.2-.3-.2-.4-.5-.8-.7-1.3 0-.1-.1-.2-.1-.3-.1-.2-.1-.3-.2-.5s-.1-.4-.2-.6c-.1-.3-.1-.5-.2-.8-.4-2.9 1.8-4.2 3.4-4.8 1.6-.7 4.1-1.2 5.8 1 .2.2.3.4.5.7l.3.6c.1.1.1.3.2.5 0 .1.1.2.1.3.2.5.3.9.4 1.4 0 .1 0 .2.1.3.1.4.1.8.2 1.1v.3c.2.7.2 1.4.1 2.1z" fill="#ffec00"/><path class="st4" d="M23.2 6.8L26 5.6s2.8-1.1 3.9 1.6-1.6 3.9-1.6 3.9-2.7 1.2-3.9-1.6-1.2-2.7-1.2-2.7zM13.6 10.7l-2.8 1.1S8.1 13 9.2 15.7s3.9 1.6 3.9 1.6 2.8-1.1 1.6-3.9-1.1-2.7-1.1-2.7z"/><path class="st2" d="M23.8 8.2l-9.7 4c0-.1-.1-.2-.1-.3-.1-.2-.1-.3-.2-.5s-.1-.4-.2-.6l9.5-3.9.3.6c.1.1.1.3.2.5.1 0 .2.1.2.2zM24.5 11.3l-8.6 3.5c-.1-.1-.1-.2-.2-.3-.2-.3-.5-.6-.7-.9l9.3-3.8c.1.4.1.8.2 1.1v.4zM24.4 13.4c-.1.6-.1 1.1-.3 1.7l-5.5 2.3c-.4-.3-.9-.6-1.3-1l7.1-3z"/></g></g></switch></svg>